<?xml version="1.0" encoding="UTF-8" standalone="no"?>
<!DOCTYPE svg PUBLIC "-//W3C//DTD SVG 1.1//EN" "http://www.w3.org/Graphics/SVG/1.1/DTD/svg11.dtd">
<svg xmlns="http://www.w3.org/2000/svg" version="1.1" viewBox="0.00 0.00 1920.00 595.00">
<g stroke-width="2.00" fill="none" stroke-linecap="butt">
<path stroke="#d989d7" vector-effect="non-scaling-stroke" d="
  M 1526.57 0.00
  C 1525.38 0.31 1524.63 0.43 1523.81 1.44
  C 1474.32 61.52 1453.14 137.93 1463.64 215.29"
/>
<path stroke="#d28ccf" vector-effect="non-scaling-stroke" d="
  M 1463.64 215.29
  C 1463.35 216.74 1464.24 218.55 1464.40 220.58
  C 1464.58 222.88 1465.33 225.06 1465.53 227.44
  Q 1465.70 229.46 1466.18 231.48
  C 1466.99 234.85 1466.54 238.28 1467.67 241.39
  Q 1469.09 245.27 1470.69 249.07
  A 1.67 1.66 -51.4 0 1 1470.79 249.98
  Q 1470.39 252.13 1471.69 253.72
  Q 1472.61 254.85 1472.83 255.49
  C 1473.41 257.19 1473.50 258.88 1475.28 260.01
  Q 1475.69 260.28 1475.80 260.75
  C 1476.28 262.76 1477.35 266.87 1478.98 268.21
  Q 1479.38 268.54 1479.54 269.04
  L 1483.35 281.16
  Q 1483.49 281.61 1483.86 281.91
  Q 1484.47 282.41 1484.39 283.21
  Q 1484.34 283.70 1484.71 284.03
  Q 1485.58 284.82 1485.77 285.75
  Q 1486.47 289.19 1487.28 292.61
  C 1487.67 294.22 1488.86 295.25 1489.12 296.93
  Q 1489.21 297.51 1489.63 297.90
  Q 1490.00 298.23 1490.20 298.69
  Q 1492.40 303.79 1495.14 308.62
  Q 1495.33 308.96 1495.39 309.33
  A 1.88 1.83 -69.3 0 0 1495.70 310.04
  Q 1496.61 311.28 1497.40 313.24
  C 1498.19 315.18 1499.96 317.12 1500.95 318.97
  Q 1502.95 322.68 1505.52 326.01
  C 1506.44 327.19 1507.15 328.70 1508.14 330.11
  Q 1515.55 340.74 1521.67 348.32
  C 1523.02 349.99 1524.19 351.95 1525.57 353.46
  Q 1533.90 362.67 1542.54 371.58
  Q 1543.38 372.45 1544.23 373.28
  Q 1552.95 381.84 1562.51 389.45
  Q 1565.62 391.92 1568.45 394.73
  Q 1568.76 395.05 1568.90 395.47
  Q 1569.20 396.37 1570.26 396.37
  C 1571.66 396.36 1572.44 396.49 1573.57 397.43
  C 1582.54 404.81 1592.91 410.94 1602.98 416.68
  C 1611.48 421.52 1622.30 426.54 1630.38 429.86
  C 1639.92 433.77 1651.62 437.70 1662.69 440.55
  C 1672.41 443.05 1678.77 444.66 1687.40 445.72
  Q 1689.91 446.02 1696.50 447.37
  C 1701.77 448.44 1706.59 448.32 1712.42 448.92
  C 1716.84 449.37 1721.54 449.35 1726.13 449.75
  C 1728.22 449.93 1730.40 449.50 1732.60 449.62
  C 1738.14 449.94 1743.60 449.68 1749.14 449.63
  C 1751.07 449.62 1753.42 449.08 1755.59 449.21
  C 1758.43 449.38 1760.64 449.08 1763.26 449.17
  C 1765.41 449.24 1767.43 448.71 1769.60 448.67
  Q 1772.99 448.61 1776.09 447.12
  Q 1776.53 446.91 1777.02 446.91
  C 1778.80 446.93 1779.97 445.51 1781.68 445.64
  Q 1783.29 445.76 1783.83 445.67
  Q 1788.63 444.94 1793.42 444.11
  Q 1795.86 443.69 1798.93 442.57
  C 1802.03 441.45 1804.30 441.42 1806.88 440.74
  Q 1808.32 440.37 1809.19 440.24
  C 1811.24 439.95 1812.56 438.76 1814.33 438.29
  Q 1819.08 437.05 1823.74 435.45
  Q 1851.52 425.87 1876.49 410.41
  Q 1881.68 407.19 1886.98 404.14
  C 1888.02 403.54 1888.86 402.59 1889.76 402.02
  Q 1895.91 398.13 1901.63 393.63
  Q 1909.82 387.16 1917.71 380.42"
/>
<path stroke="#d989d7" vector-effect="non-scaling-stroke" d="
  M 1917.71 380.42
  L 1920.00 378.03"
/>
<path stroke="#dd86da" vector-effect="non-scaling-stroke" d="
  M 1917.71 380.42
  C 1909.80 327.86 1887.78 278.77 1852.83 239.05
  Q 1828.43 211.32 1799.60 191.91
  C 1696.13 122.22 1556.73 131.54 1463.64 215.29"
/>
</g>
<path fill="#cd8fcb" d="
  M 0.00 0.00
  L 1526.57 0.00
  C 1525.38 0.31 1524.63 0.43 1523.81 1.44
  C 1474.32 61.52 1453.14 137.93 1463.64 215.29
  C 1463.35 216.74 1464.24 218.55 1464.40 220.58
  C 1464.58 222.88 1465.33 225.06 1465.53 227.44
  Q 1465.70 229.46 1466.18 231.48
  C 1466.99 234.85 1466.54 238.28 1467.67 241.39
  Q 1469.09 245.27 1470.69 249.07
  A 1.67 1.66 -51.4 0 1 1470.79 249.98
  Q 1470.39 252.13 1471.69 253.72
  Q 1472.61 254.85 1472.83 255.49
  C 1473.41 257.19 1473.50 258.88 1475.28 260.01
  Q 1475.69 260.28 1475.80 260.75
  C 1476.28 262.76 1477.35 266.87 1478.98 268.21
  Q 1479.38 268.54 1479.54 269.04
  L 1483.35 281.16
  Q 1483.49 281.61 1483.86 281.91
  Q 1484.47 282.41 1484.39 283.21
  Q 1484.34 283.70 1484.71 284.03
  Q 1485.58 284.82 1485.77 285.75
  Q 1486.47 289.19 1487.28 292.61
  C 1487.67 294.22 1488.86 295.25 1489.12 296.93
  Q 1489.21 297.51 1489.63 297.90
  Q 1490.00 298.23 1490.20 298.69
  Q 1492.40 303.79 1495.14 308.62
  Q 1495.33 308.96 1495.39 309.33
  A 1.88 1.83 -69.3 0 0 1495.70 310.04
  Q 1496.61 311.28 1497.40 313.24
  C 1498.19 315.18 1499.96 317.12 1500.95 318.97
  Q 1502.95 322.68 1505.52 326.01
  C 1506.44 327.19 1507.15 328.70 1508.14 330.11
  Q 1515.55 340.74 1521.67 348.32
  C 1523.02 349.99 1524.19 351.95 1525.57 353.46
  Q 1533.90 362.67 1542.54 371.58
  Q 1543.38 372.45 1544.23 373.28
  Q 1552.95 381.84 1562.51 389.45
  Q 1565.62 391.92 1568.45 394.73
  Q 1568.76 395.05 1568.90 395.47
  Q 1569.20 396.37 1570.26 396.37
  C 1571.66 396.36 1572.44 396.49 1573.57 397.43
  C 1582.54 404.81 1592.91 410.94 1602.98 416.68
  C 1611.48 421.52 1622.30 426.54 1630.38 429.86
  C 1639.92 433.77 1651.62 437.70 1662.69 440.55
  C 1672.41 443.05 1678.77 444.66 1687.40 445.72
  Q 1689.91 446.02 1696.50 447.37
  C 1701.77 448.44 1706.59 448.32 1712.42 448.92
  C 1716.84 449.37 1721.54 449.35 1726.13 449.75
  C 1728.22 449.93 1730.40 449.50 1732.60 449.62
  C 1738.14 449.94 1743.60 449.68 1749.14 449.63
  C 1751.07 449.62 1753.42 449.08 1755.59 449.21
  C 1758.43 449.38 1760.64 449.08 1763.26 449.17
  C 1765.41 449.24 1767.43 448.71 1769.60 448.67
  Q 1772.99 448.61 1776.09 447.12
  Q 1776.53 446.91 1777.02 446.91
  C 1778.80 446.93 1779.97 445.51 1781.68 445.64
  Q 1783.29 445.76 1783.83 445.67
  Q 1788.63 444.94 1793.42 444.11
  Q 1795.86 443.69 1798.93 442.57
  C 1802.03 441.45 1804.30 441.42 1806.88 440.74
  Q 1808.32 440.37 1809.19 440.24
  C 1811.24 439.95 1812.56 438.76 1814.33 438.29
  Q 1819.08 437.05 1823.74 435.45
  Q 1851.52 425.87 1876.49 410.41
  Q 1881.68 407.19 1886.98 404.14
  C 1888.02 403.54 1888.86 402.59 1889.76 402.02
  Q 1895.91 398.13 1901.63 393.63
  Q 1909.82 387.16 1917.71 380.42
  L 1920.00 378.03
  L 1920.00 595.00
  L 0.00 595.00
  L 0.00 0.00
  Z"
/>
<path fill="#e483e2" d="
  M 1526.57 0.00
  L 1920.00 0.00
  L 1920.00 378.03
  L 1917.71 380.42
  C 1909.80 327.86 1887.78 278.77 1852.83 239.05
  Q 1828.43 211.32 1799.60 191.91
  C 1696.13 122.22 1556.73 131.54 1463.64 215.29
  C 1453.14 137.93 1474.32 61.52 1523.81 1.44
  C 1524.63 0.43 1525.38 0.31 1526.57 0.00
  Z"
/>
<path fill="#d688d2" d="
  M 1917.71 380.42
  Q 1909.82 387.16 1901.63 393.63
  Q 1895.91 398.13 1889.76 402.02
  C 1888.86 402.59 1888.02 403.54 1886.98 404.14
  Q 1881.68 407.19 1876.49 410.41
  Q 1851.52 425.87 1823.74 435.45
  Q 1819.08 437.05 1814.33 438.29
  C 1812.56 438.76 1811.24 439.95 1809.19 440.24
  Q 1808.32 440.37 1806.88 440.74
  C 1804.30 441.42 1802.03 441.45 1798.93 442.57
  Q 1795.86 443.69 1793.42 444.11
  Q 1788.63 444.94 1783.83 445.67
  Q 1783.29 445.76 1781.68 445.64
  C 1779.97 445.51 1778.80 446.93 1777.02 446.91
  Q 1776.53 446.91 1776.09 447.12
  Q 1772.99 448.61 1769.60 448.67
  C 1767.43 448.71 1765.41 449.24 1763.26 449.17
  C 1760.64 449.08 1758.43 449.38 1755.59 449.21
  C 1753.42 449.08 1751.07 449.62 1749.14 449.63
  C 1743.60 449.68 1738.14 449.94 1732.60 449.62
  C 1730.40 449.50 1728.22 449.93 1726.13 449.75
  C 1721.54 449.35 1716.84 449.37 1712.42 448.92
  C 1706.59 448.32 1701.77 448.44 1696.50 447.37
  Q 1689.91 446.02 1687.40 445.72
  C 1678.77 444.66 1672.41 443.05 1662.69 440.55
  C 1651.62 437.70 1639.92 433.77 1630.38 429.86
  C 1622.30 426.54 1611.48 421.52 1602.98 416.68
  C 1592.91 410.94 1582.54 404.81 1573.57 397.43
  C 1572.44 396.49 1571.66 396.36 1570.26 396.37
  Q 1569.20 396.37 1568.90 395.47
  Q 1568.76 395.05 1568.45 394.73
  Q 1565.62 391.92 1562.51 389.45
  Q 1552.95 381.84 1544.23 373.28
  Q 1543.38 372.45 1542.54 371.58
  Q 1533.90 362.67 1525.57 353.46
  C 1524.19 351.95 1523.02 349.99 1521.67 348.32
  Q 1515.55 340.74 1508.14 330.11
  C 1507.15 328.70 1506.44 327.19 1505.52 326.01
  Q 1502.95 322.68 1500.95 318.97
  C 1499.96 317.12 1498.19 315.18 1497.40 313.24
  Q 1496.61 311.28 1495.70 310.04
  A 1.88 1.83 -69.3 0 1 1495.39 309.33
  Q 1495.33 308.96 1495.14 308.62
  Q 1492.40 303.79 1490.20 298.69
  Q 1490.00 298.23 1489.63 297.90
  Q 1489.21 297.51 1489.12 296.93
  C 1488.86 295.25 1487.67 294.22 1487.28 292.61
  Q 1486.47 289.19 1485.77 285.75
  Q 1485.58 284.82 1484.71 284.03
  Q 1484.34 283.70 1484.39 283.21
  Q 1484.47 282.41 1483.86 281.91
  Q 1483.49 281.61 1483.35 281.16
  L 1479.54 269.04
  Q 1479.38 268.54 1478.98 268.21
  C 1477.35 266.87 1476.28 262.76 1475.80 260.75
  Q 1475.69 260.28 1475.28 260.01
  C 1473.50 258.88 1473.41 257.19 1472.83 255.49
  Q 1472.61 254.85 1471.69 253.72
  Q 1470.39 252.13 1470.79 249.98
  A 1.67 1.66 -51.4 0 0 1470.69 249.07
  Q 1469.09 245.27 1467.67 241.39
  C 1466.54 238.28 1466.99 234.85 1466.18 231.48
  Q 1465.70 229.46 1465.53 227.44
  C 1465.33 225.06 1464.58 222.88 1464.40 220.58
  C 1464.24 218.55 1463.35 216.74 1463.64 215.29
  C 1556.73 131.54 1696.13 122.22 1799.60 191.91
  Q 1828.43 211.32 1852.83 239.05
  C 1887.78 278.77 1909.80 327.86 1917.71 380.42
  Z"
/>
</svg>
