<svg xmlns="http://www.w3.org/2000/svg" version="1.1" viewBox="0.00 0.00 50.00 50.00">
<g stroke-width="2.00" fill="none" stroke-linecap="butt">
<path stroke="#c2aac0" vector-effect="non-scaling-stroke" d="   M 23.57 0.00   L 23.48 2.89   Q 23.48 3.16 23.75 3.16   L 26.30 3.15   Q 26.61 3.15 26.61 2.83   L 26.57 0.00" fill="#cd8fcb"/>
<path stroke="#c2aac0" vector-effect="non-scaling-stroke" d="   M 25.98 50.00   Q 28.12 49.25 29.23 47.35   Q 29.46 46.94 29.93 46.83   Q 30.29 46.74 30.61 46.54   A 1.51 1.51 0.0 0 0 29.80 43.75   L 20.00 43.76   A 1.48 1.48 0.0 0 0 19.58 46.66   L 19.99 46.78   A 1.41 1.38 81.9 0 1 20.77 47.38   Q 21.88 49.20 23.93 50.00" fill="#cd8fcb"/>
<path stroke="#c2aac0" vector-effect="non-scaling-stroke" d="   M 17.2029 2.1431   A 0.47 0.47 0.0 0 0 16.5594 1.9766   L 14.6466 3.1034   A 0.47 0.47 0.0 0 0 14.4802 3.7469   L 15.6171 5.6769   A 0.47 0.47 0.0 0 0 16.2606 5.8434   L 18.1734 4.7166   A 0.47 0.47 0.0 0 0 18.3398 4.0731   L 17.2029 2.1431" fill="#cd8fcb"/>
<path stroke="#c2aac0" vector-effect="non-scaling-stroke" d="   M 35.4802 3.7663   A 0.52 0.52 0.0 0 0 35.2923 3.0553   L 33.4773 1.9990   A 0.52 0.52 0.0 0 0 32.7664 2.1868   L 31.6798 4.0537   A 0.52 0.52 0.0 0 0 31.8677 4.7647   L 33.6827 5.8210   A 0.52 0.52 0.0 0 0 34.3936 5.6332   L 35.4802 3.7663" fill="#cd8fcb"/>
<path stroke="#c2aac0" vector-effect="non-scaling-stroke" d="   M 31.24 37.04   C 31.86 32.36 34.27 28.46 36.19 24.25   C 42.49 10.44 24.39 -0.61 14.98 11.25   C 8.15 19.87 17.47 28.32 18.71 37.02   Q 18.77 37.50 19.26 37.50   L 30.72 37.50   Q 31.18 37.50 31.24 37.04" fill="#cd8fcb"/>
<path stroke="#c2aac0" vector-effect="non-scaling-stroke" d="   M 12.1071 9.9719   A 0.40 0.40 0.0 0 0 11.9645 9.4245   L 9.8945 8.2100   A 0.40 0.40 0.0 0 0 9.3471 8.3526   L 8.1529 10.3881   A 0.40 0.40 0.0 0 0 8.2955 10.9355   L 10.3655 12.1500   A 0.40 0.40 0.0 0 0 10.9129 12.0074   L 12.1071 9.9719" fill="#cd8fcb"/>
<path stroke="#c2aac0" vector-effect="non-scaling-stroke" d="   M 40.6725 8.3913   A 0.43 0.43 0.0 0 0 40.0849 8.2349   L 38.0604 9.4085   A 0.43 0.43 0.0 0 0 37.9040 9.9961   L 39.0475 11.9687   A 0.43 0.43 0.0 0 0 39.6351 12.1251   L 41.6596 10.9515   A 0.43 0.43 0.0 0 0 41.8160 10.3639   L 40.6725 8.3913" fill="#cd8fcb"/>
<path stroke="#c2aac0" vector-effect="non-scaling-stroke" d="   M 9.4423 17.5128   A 0.26 0.26 0.0 0 0 9.1827 17.2523   L 6.5227 17.2477   A 0.26 0.26 0.0 0 0 6.2623 17.5072   L 6.2577 20.1072   A 0.26 0.26 0.0 0 0 6.5173 20.3677   L 9.1773 20.3723   A 0.26 0.26 0.0 0 0 9.4377 20.1128   L 9.4423 17.5128" fill="#cd8fcb"/>
<path stroke="#c2aac0" vector-effect="non-scaling-stroke" d="   M 43.7445 17.5256   A 0.27 0.27 0.0 0 0 43.4754 17.2546   L 40.8355 17.2454   A 0.27 0.27 0.0 0 0 40.5645 17.5145   L 40.5555 20.0944   A 0.27 0.27 0.0 0 0 40.8246 20.3654   L 43.4645 20.3746   A 0.27 0.27 0.0 0 0 43.7355 20.1055   L 43.7445 17.5256" fill="#cd8fcb"/>
<path stroke="#c2aac0" vector-effect="non-scaling-stroke" d="   M 11.71 28.25   A 0.53 0.53 0.0 0 0 11.92 27.55   L 10.99 25.70   A 0.53 0.53 0.0 0 0 10.26 25.47   L 8.41 26.47   A 0.53 0.53 0.0 0 0 8.21 27.20   L 9.28 29.04   A 0.53 0.53 0.0 0 0 10.00 29.23   L 11.71 28.25" fill="#cd8fcb"/>
<path stroke="#c2aac0" vector-effect="non-scaling-stroke" d="   M 41.7844 27.1536   A 0.51 0.51 0.0 0 0 41.5904 26.4589   L 39.7609 25.4280   A 0.51 0.51 0.0 0 0 39.0662 25.6220   L 38.0156 27.4864   A 0.51 0.51 0.0 0 0 38.2096 28.1811   L 40.0391 29.2120   A 0.51 0.51 0.0 0 0 40.7338 29.0180   L 41.7844 27.1536" fill="#cd8fcb"/>
<path stroke="#c2aac0" vector-effect="non-scaling-stroke" d="   M 31.2199 40.6191   A 1.51 1.51 0.0 0 0 29.7073 39.1118   L 20.2673 39.1282   A 1.51 1.51 0.0 0 0 18.7599 40.6409   L 18.7601 40.7409   A 1.51 1.51 0.0 0 0 20.2727 42.2482   L 29.7127 42.2318   A 1.51 1.51 0.0 0 0 31.2201 40.7191   L 31.2199 40.6191" fill="#cd8fcb"/>
</g>
<path fill="#ffffff" d="   M 0.00 0.00   L 23.57 0.00   L 23.48 2.89   Q 23.48 3.16 23.75 3.16   L 26.30 3.15   Q 26.61 3.15 26.61 2.83   L 26.57 0.00   L 50.00 0.00   L 50.00 50.00   L 25.98 50.00   Q 28.12 49.25 29.23 47.35   Q 29.46 46.94 29.93 46.83   Q 30.29 46.74 30.61 46.54   A 1.51 1.51 0.0 0 0 29.80 43.75   L 20.00 43.76   A 1.48 1.48 0.0 0 0 19.58 46.66   L 19.99 46.78   A 1.41 1.38 81.9 0 1 20.77 47.38   Q 21.88 49.20 23.93 50.00   L 0.00 50.00   L 0.00 0.00   Z   M 17.2029 2.1431   A 0.47 0.47 0.0 0 0 16.5594 1.9766   L 14.6466 3.1034   A 0.47 0.47 0.0 0 0 14.4802 3.7469   L 15.6171 5.6769   A 0.47 0.47 0.0 0 0 16.2606 5.8434   L 18.1734 4.7166   A 0.47 0.47 0.0 0 0 18.3398 4.0731   L 17.2029 2.1431   Z   M 35.4802 3.7663   A 0.52 0.52 0.0 0 0 35.2923 3.0553   L 33.4773 1.9990   A 0.52 0.52 0.0 0 0 32.7664 2.1868   L 31.6798 4.0537   A 0.52 0.52 0.0 0 0 31.8677 4.7647   L 33.6827 5.8210   A 0.52 0.52 0.0 0 0 34.3936 5.6332   L 35.4802 3.7663   Z   M 31.24 37.04   C 31.86 32.36 34.27 28.46 36.19 24.25   C 42.49 10.44 24.39 -0.61 14.98 11.25   C 8.15 19.87 17.47 28.32 18.71 37.02   Q 18.77 37.50 19.26 37.50   L 30.72 37.50   Q 31.18 37.50 31.24 37.04   Z   M 12.1071 9.9719   A 0.40 0.40 0.0 0 0 11.9645 9.4245   L 9.8945 8.2100   A 0.40 0.40 0.0 0 0 9.3471 8.3526   L 8.1529 10.3881   A 0.40 0.40 0.0 0 0 8.2955 10.9355   L 10.3655 12.1500   A 0.40 0.40 0.0 0 0 10.9129 12.0074   L 12.1071 9.9719   Z   M 40.6725 8.3913   A 0.43 0.43 0.0 0 0 40.0849 8.2349   L 38.0604 9.4085   A 0.43 0.43 0.0 0 0 37.9040 9.9961   L 39.0475 11.9687   A 0.43 0.43 0.0 0 0 39.6351 12.1251   L 41.6596 10.9515   A 0.43 0.43 0.0 0 0 41.8160 10.3639   L 40.6725 8.3913   Z   M 9.4423 17.5128   A 0.26 0.26 0.0 0 0 9.1827 17.2523   L 6.5227 17.2477   A 0.26 0.26 0.0 0 0 6.2623 17.5072   L 6.2577 20.1072   A 0.26 0.26 0.0 0 0 6.5173 20.3677   L 9.1773 20.3723   A 0.26 0.26 0.0 0 0 9.4377 20.1128   L 9.4423 17.5128   Z   M 43.7445 17.5256   A 0.27 0.27 0.0 0 0 43.4754 17.2546   L 40.8355 17.2454   A 0.27 0.27 0.0 0 0 40.5645 17.5145   L 40.5555 20.0944   A 0.27 0.27 0.0 0 0 40.8246 20.3654   L 43.4645 20.3746   A 0.27 0.27 0.0 0 0 43.7355 20.1055   L 43.7445 17.5256   Z   M 11.71 28.25   A 0.53 0.53 0.0 0 0 11.92 27.55   L 10.99 25.70   A 0.53 0.53 0.0 0 0 10.26 25.47   L 8.41 26.47   A 0.53 0.53 0.0 0 0 8.21 27.20   L 9.28 29.04   A 0.53 0.53 0.0 0 0 10.00 29.23   L 11.71 28.25   Z   M 41.7844 27.1536   A 0.51 0.51 0.0 0 0 41.5904 26.4589   L 39.7609 25.4280   A 0.51 0.51 0.0 0 0 39.0662 25.6220   L 38.0156 27.4864   A 0.51 0.51 0.0 0 0 38.2096 28.1811   L 40.0391 29.2120   A 0.51 0.51 0.0 0 0 40.7338 29.0180   L 41.7844 27.1536   Z   M 31.2199 40.6191   A 1.51 1.51 0.0 0 0 29.7073 39.1118   L 20.2673 39.1282   A 1.51 1.51 0.0 0 0 18.7599 40.6409   L 18.7601 40.7409   A 1.51 1.51 0.0 0 0 20.2727 42.2482   L 29.7127 42.2318   A 1.51 1.51 0.0 0 0 31.2201 40.7191   L 31.2199 40.6191   Z"/>
<path fill="#cd8fcb" d="   M 23.57 0.00   L 26.57 0.00   L 26.61 2.83   Q 26.61 3.15 26.30 3.15   L 23.75 3.16   Q 23.48 3.16 23.48 2.89   L 23.57 0.00   Z"/>
<rect fill="#cd8fcb" x="-1.58" y="-1.59" transform="translate(16.41,3.91) rotate(-30.5)" width="3.16" height="3.18" rx="0.47"/>
<rect fill="#cd8fcb" x="-1.57" y="-1.60" transform="translate(33.58,3.91) rotate(30.2)" width="3.14" height="3.20" rx="0.52"/>
<path fill="#cd8fcb" d="   M 36.19 24.25   C 34.27 28.46 31.86 32.36 31.24 37.04   Q 31.18 37.50 30.72 37.50   L 19.26 37.50   Q 18.77 37.50 18.71 37.02   C 17.47 28.32 8.15 19.87 14.98 11.25   C 24.39 -0.61 42.49 10.44 36.19 24.25   Z"/>
<rect fill="#cd8fcb" x="-1.60" y="-1.58" transform="translate(10.13,10.18) rotate(30.4)" width="3.20" height="3.16" rx="0.40"/>
<rect fill="#cd8fcb" x="-1.60" y="-1.57" transform="translate(39.86,10.18) rotate(-30.1)" width="3.20" height="3.14" rx="0.43"/>
<rect fill="#cd8fcb" x="-1.59" y="-1.56" transform="translate(7.85,18.81) rotate(0.1)" width="3.18" height="3.12" rx="0.26"/>
<rect fill="#cd8fcb" x="-1.59" y="-1.56" transform="translate(42.15,18.81) rotate(0.2)" width="3.18" height="3.12" rx="0.27"/>
<path fill="#cd8fcb" d="   M 11.71 28.25   L 10.00 29.23   A 0.53 0.53 0.0 0 1 9.28 29.04   L 8.21 27.20   A 0.53 0.53 0.0 0 1 8.41 26.47   L 10.26 25.47   A 0.53 0.53 0.0 0 1 10.99 25.70   L 11.92 27.55   A 0.53 0.53 0.0 0 1 11.71 28.25   Z"/>
<rect fill="#cd8fcb" x="-1.56" y="-1.58" transform="translate(39.90,27.32) rotate(29.4)" width="3.12" height="3.16" rx="0.51"/>
<rect fill="#cd8fcb" x="-6.23" y="-1.56" transform="translate(24.99,40.68) rotate(-0.1)" width="12.46" height="3.12" rx="1.51"/>
<path fill="#cd8fcb" d="   M 25.98 50.00   L 23.93 50.00   Q 21.88 49.20 20.77 47.38   A 1.41 1.38 81.9 0 0 19.99 46.78   L 19.58 46.66   A 1.48 1.48 0.0 0 1 20.00 43.76   L 29.80 43.75   A 1.51 1.51 0.0 0 1 30.61 46.54   Q 30.29 46.74 29.93 46.83   Q 29.46 46.94 29.23 47.35   Q 28.12 49.25 25.98 50.00   Z"/>
</svg>