<svg xmlns="http://www.w3.org/2000/svg" version="1.1" viewBox="0.00 0.00 50.00 50.00">
<g stroke-width="2.00" fill="none" stroke-linecap="butt">
<path stroke="#808080" vector-effect="non-scaling-stroke" d="   M 28.59 36.39   A 1.03 1.02 -88.9 0 1 29.65 35.36   C 32.49 35.47 35.41 35.52 37.99 34.38   C 45.34 31.16 47.42 23.67 44.61 16.51   C 41.94 9.70 34.90 5.20 27.82 4.34   C 13.32 2.56 1.44 14.98 4.37 29.41   C 6.26 38.70 14.90 45.67 24.26 45.84   C 27.65 45.90 30.71 43.27 30.08 39.71   C 29.86 38.49 28.59 37.21 28.59 36.39" fill="#cd8fcb"/>
<path stroke="#808080" vector-effect="non-scaling-stroke" d="   M 26.02 11.46   A 3.11 3.11 0.0 0 0 22.91 8.35   A 3.11 3.11 0.0 0 0 19.80 11.46   A 3.11 3.11 0.0 0 0 22.91 14.57   A 3.11 3.11 0.0 0 0 26.02 11.46" fill="#cd8fcb"/>
<path stroke="#808080" vector-effect="non-scaling-stroke" d="   M 36.40 13.57   A 3.11 3.11 0.0 0 0 33.29 10.46   A 3.11 3.11 0.0 0 0 30.18 13.57   A 3.11 3.11 0.0 0 0 33.29 16.68   A 3.11 3.11 0.0 0 0 36.40 13.57" fill="#cd8fcb"/>
<path stroke="#808080" vector-effect="non-scaling-stroke" d="   M 17.65 17.78   A 3.11 3.11 0.0 0 0 14.54 14.67   A 3.11 3.11 0.0 0 0 11.43 17.78   A 3.11 3.11 0.0 0 0 14.54 20.89   A 3.11 3.11 0.0 0 0 17.65 17.78" fill="#cd8fcb"/>
<path stroke="#808080" vector-effect="non-scaling-stroke" d="   M 15.61 28.13   A 3.12 3.12 0.0 0 0 12.49 25.01   A 3.12 3.12 0.0 0 0 9.37 28.13   A 3.12 3.12 0.0 0 0 12.49 31.25   A 3.12 3.12 0.0 0 0 15.61 28.13" fill="#cd8fcb"/>
</g>
<path fill="#ffffff" d="   M 0.00 0.00   L 50.00 0.00   L 50.00 50.00   L 0.00 50.00   L 0.00 0.00   Z   M 28.59 36.39   A 1.03 1.02 -88.9 0 1 29.65 35.36   C 32.49 35.47 35.41 35.52 37.99 34.38   C 45.34 31.16 47.42 23.67 44.61 16.51   C 41.94 9.70 34.90 5.20 27.82 4.34   C 13.32 2.56 1.44 14.98 4.37 29.41   C 6.26 38.70 14.90 45.67 24.26 45.84   C 27.65 45.90 30.71 43.27 30.08 39.71   C 29.86 38.49 28.59 37.21 28.59 36.39   Z"/>
<path fill="#cd8fcb" d="   M 28.59 36.39   C 28.59 37.21 29.86 38.49 30.08 39.71   C 30.71 43.27 27.65 45.90 24.26 45.84   C 14.90 45.67 6.26 38.70 4.37 29.41   C 1.44 14.98 13.32 2.56 27.82 4.34   C 34.90 5.20 41.94 9.70 44.61 16.51   C 47.42 23.67 45.34 31.16 37.99 34.38   C 35.41 35.52 32.49 35.47 29.65 35.36   A 1.03 1.02 -88.9 0 0 28.59 36.39   Z   M 26.02 11.46   A 3.11 3.11 0.0 0 0 22.91 8.35   A 3.11 3.11 0.0 0 0 19.80 11.46   A 3.11 3.11 0.0 0 0 22.91 14.57   A 3.11 3.11 0.0 0 0 26.02 11.46   Z   M 36.40 13.57   A 3.11 3.11 0.0 0 0 33.29 10.46   A 3.11 3.11 0.0 0 0 30.18 13.57   A 3.11 3.11 0.0 0 0 33.29 16.68   A 3.11 3.11 0.0 0 0 36.40 13.57   Z   M 17.65 17.78   A 3.11 3.11 0.0 0 0 14.54 14.67   A 3.11 3.11 0.0 0 0 11.43 17.78   A 3.11 3.11 0.0 0 0 14.54 20.89   A 3.11 3.11 0.0 0 0 17.65 17.78   Z   M 15.61 28.13   A 3.12 3.12 0.0 0 0 12.49 25.01   A 3.12 3.12 0.0 0 0 9.37 28.13   A 3.12 3.12 0.0 0 0 12.49 31.25   A 3.12 3.12 0.0 0 0 15.61 28.13   Z"/>
<circle fill="#ffffff" cx="22.91" cy="11.46" r="3.11"/>
<circle fill="#ffffff" cx="33.29" cy="13.57" r="3.11"/>
<circle fill="#ffffff" cx="14.54" cy="17.78" r="3.11"/>
<circle fill="#ffffff" cx="12.49" cy="28.13" r="3.12"/>
</svg>