<svg xmlns="http://www.w3.org/2000/svg" version="1.1" viewBox="0.00 0.00 224.00 224.00">
<g stroke-width="2.00" fill="none" stroke-linecap="butt">
<path stroke="#918f90" vector-effect="non-scaling-stroke" d="   M 145.23 24.63   C 128.96 16.25 101.32 9.37 88.56 28.04   Q 88.35 28.34 88.48 28.68   L 97.79 53.50   Q 97.99 54.03 98.56 54.04   L 133.23 54.49   Q 133.76 54.49 133.96 54.00   L 145.47 25.27   A 0.51 0.51 0.0 0 0 145.23 24.63" fill="#e09cdd"/>
<path stroke="#918f90" vector-effect="non-scaling-stroke" d="   M 90.29 61.00   L 90.53 58.35   A 1.34 1.32 -68.5 0 0 90.04 57.20   L 66.44 38.30   A 0.69 0.68 34.6 0 0 65.42 38.48   L 61.75 44.54   A 0.81 0.80 31.4 0 0 62.02 45.64   Q 75.41 53.75 88.96 61.93   C 91.71 63.59 93.41 68.18 96.50 68.19   Q 110.00 68.21 133.19 68.82   A 1.01 1.00 -68.5 0 0 134.00 68.46   L 137.89 63.87   A 0.51 0.51 0.0 0 0 137.82 63.14   L 132.78 59.07   Q 132.34 58.71 131.77 58.70   Q 114.50 58.42 97.25 58.06   C 94.58 58.01 93.15 59.92 91.67 61.60   A 0.79 0.79 0.0 0 1 90.29 61.00" fill="#e09cdd"/>
<path stroke="#918f90" vector-effect="non-scaling-stroke" d="   M 90.06 70.64   A 0.38 0.38 0.0 0 0 90.37 70.11   L 88.40 65.78   A 0.38 0.38 0.0 0 0 88.07 65.56   L 63.23 64.19   A 0.38 0.38 0.0 0 0 62.84 64.48   L 60.78 73.03   A 0.38 0.38 0.0 0 0 61.18 73.50   L 90.06 70.64" fill="#e09cdd"/>
<path stroke="#d1b8d0" vector-effect="non-scaling-stroke" d="   M 81.61 199.42   Q 110.94 208.49 140.72 200.73   Q 152.02 197.79 159.04 193.03   C 173.37 183.30 180.86 166.63 181.54 149.49   C 182.67 120.88 155.65 91.38 135.08 74.42   C 133.12 72.80 132.34 71.63 129.66 71.52   Q 113.34 70.84 97.25 70.32   A 2.60 2.60 0.0 0 0 95.43 70.97   C 78.19 86.12 58.01 107.60 51.04 129.99   C 49.54 134.80 48.84 140.85 47.81 146.24   Q 46.81 151.51 47.42 159.98   Q 48.87 180.26 63.57 191.06   Q 70.12 195.87 81.61 199.42" fill="#e09cdd"/>
<path stroke="#a870a6" vector-effect="non-scaling-stroke" d="   M 94.88 72.88   Q 79.96 87.55 73.27 95.50   Q 66.08 104.05 60.89 111.88   Q 55.74 119.65 52.60 128.73   C 50.86 133.78 50.12 139.82 49.13 145.38   C 48.02 151.63 48.10 161.17 49.81 167.93   Q 51.79 175.78 55.91 181.78   C 63.86 193.32 78.11 197.78 91.27 200.77   C 95.30 201.68 99.24 201.70 103.27 202.55   C 108.01 203.56 114.69 202.88 119.64 202.87   C 123.17 202.86 126.99 202.09 130.99 201.65   Q 138.54 200.83 148.65 197.23   C 168.57 190.15 179.46 170.17 180.19 149.97   C 180.81 132.47 172.14 115.65 160.90 102.60   C 154.87 95.60 150.02 89.17 143.50 83.21   Q 138.39 78.53 133.10 74.05   C 131.64 72.81 130.59 72.64 128.75 72.60   Q 120.20 72.44 99.75 71.65   Q 98.56 71.60 97.76 71.76   Q 97.74 71.76 96.91 71.81   Q 95.90 71.86 94.88 72.88" fill="#e09cdd"/>
<path stroke="#a870a6" vector-effect="non-scaling-stroke" d="   M 106.79 166.18   C 102.19 165.86 97.75 163.79 93.86 161.43   C 90.04 159.12 89.02 154.76 83.03 155.23   C 78.17 155.61 71.50 160.65 74.90 166.13   C 81.40 176.60 94.80 182.12 106.48 183.20   A 1.12 1.11 88.7 0 1 107.48 184.16   C 107.68 185.69 107.40 187.36 107.98 188.74   C 109.94 193.38 115.21 194.30 119.04 191.59   Q 122.15 189.38 121.56 184.81   A 1.19 1.19 0.0 0 1 122.60 183.48   Q 129.11 182.71 135.73 180.61   Q 143.99 177.99 150.05 171.83   C 158.69 163.04 159.63 150.14 151.49 141.06   C 144.75 133.54 136.39 132.48 127.21 130.16   C 125.59 129.75 124.03 129.93 122.34 129.79   A 0.77 0.76 2.5 0 1 121.64 129.03   L 121.64 109.73   A 0.90 0.90 0.0 0 1 122.58 108.83   C 128.79 109.09 135.70 111.24 139.72 116.09   C 143.30 120.42 147.48 122.04 152.73 118.90   C 156.25 116.79 157.83 113.80 156.25 109.87   Q 155.30 107.51 154.25 106.37   Q 144.13 95.38 129.49 93.14   Q 125.18 92.48 122.31 91.82   A 0.81 0.80 -1.2 0 1 121.72 91.26   Q 121.46 90.40 121.45 89.45   Q 121.38 84.72 117.91 82.95   C 112.14 80.01 107.08 84.86 107.56 91.05   A 0.67 0.66 78.0 0 1 107.12 91.73   C 104.27 92.71 100.96 92.92 98.52 93.64   C 95.33 94.57 92.27 95.32 89.38 96.97   Q 85.77 99.04 84.00 100.47   C 77.46 105.76 72.70 114.44 74.27 122.88   C 77.00 137.57 94.06 144.06 106.65 145.34   Q 107.43 145.42 107.43 146.20   L 107.37 165.75   Q 107.37 166.22 106.79 166.18" fill="#e09cdd"/>
<path stroke="#d1b8d0" vector-effect="non-scaling-stroke" d="   M 108.18 93.24   C 96.09 94.07 83.17 98.84 77.64 109.66   Q 73.83 117.13 75.96 124.77   C 79.68 138.11 96.21 143.29 108.26 144.28   Q 108.72 144.32 108.72 144.77   L 108.72 167.49   Q 108.72 167.96 108.25 167.91   C 102.62 167.33 93.87 164.78 90.42 159.95   C 84.11 151.12 69.58 159.52 77.67 168.36   C 85.87 177.30 96.87 181.21 108.22 182.21   Q 108.75 182.26 108.74 182.78   C 108.71 185.16 108.32 187.79 109.67 189.73   C 111.99 193.09 117.82 192.87 119.85 189.15   C 120.79 187.42 120.50 185.04 120.48 183.01   Q 120.48 182.48 121.00 182.43   C 136.96 181.03 158.19 172.99 155.46 152.74   C 153.25 136.23 134.73 131.37 120.97 130.98   Q 120.49 130.97 120.49 130.48   L 120.50 107.76   Q 120.50 107.27 120.98 107.30   C 126.59 107.61 137.03 110.07 140.38 115.12   C 146.93 125.01 162.56 115.98 151.66 105.33   C 143.38 97.25 131.91 93.86 120.94 93.10   Q 120.44 93.06 120.46 92.56   C 120.62 87.80 120.58 83.83 114.75 83.22   Q 111.00 82.83 109.30 86.21   C 108.37 88.05 108.76 90.53 108.72 92.67   Q 108.72 93.21 108.18 93.24" fill="#e09cdd"/>
<path stroke="#918f90" vector-effect="non-scaling-stroke" d="   M 108.80 130.11   L 108.68 107.69   A 0.28 0.28 0.0 0 0 108.40 107.41   L 108.27 107.41   A 17.99 11.28 -0.3 0 0 90.34 118.79   L 90.34 119.21   A 17.99 11.28 -0.3 0 0 108.39 130.39   L 108.52 130.39   A 0.28 0.28 0.0 0 0 108.80 130.11" fill="#e09cdd"/>
<path stroke="#918f90" vector-effect="non-scaling-stroke" d="   M 132.85 165.35   C 142.04 162.22 142.54 149.60 132.60 146.86   Q 126.93 145.30 120.97 145.06   Q 120.49 145.04 120.49 145.51   L 120.49 167.79   Q 120.49 168.46 121.15 168.37   Q 125.73 167.78 132.85 165.35" fill="#e09cdd"/>
</g>
<path fill="#ffffff" d="   M 0.00 0.00   L 224.00 0.00   L 224.00 224.00   L 0.00 224.00   L 0.00 0.00   Z   M 145.23 24.63   C 128.96 16.25 101.32 9.37 88.56 28.04   Q 88.35 28.34 88.48 28.68   L 97.79 53.50   Q 97.99 54.03 98.56 54.04   L 133.23 54.49   Q 133.76 54.49 133.96 54.00   L 145.47 25.27   A 0.51 0.51 0.0 0 0 145.23 24.63   Z   M 90.29 61.00   L 90.53 58.35   A 1.34 1.32 -68.5 0 0 90.04 57.20   L 66.44 38.30   A 0.69 0.68 34.6 0 0 65.42 38.48   L 61.75 44.54   A 0.81 0.80 31.4 0 0 62.02 45.64   Q 75.41 53.75 88.96 61.93   C 91.71 63.59 93.41 68.18 96.50 68.19   Q 110.00 68.21 133.19 68.82   A 1.01 1.00 -68.5 0 0 134.00 68.46   L 137.89 63.87   A 0.51 0.51 0.0 0 0 137.82 63.14   L 132.78 59.07   Q 132.34 58.71 131.77 58.70   Q 114.50 58.42 97.25 58.06   C 94.58 58.01 93.15 59.92 91.67 61.60   A 0.79 0.79 0.0 0 1 90.29 61.00   Z   M 90.06 70.64   A 0.38 0.38 0.0 0 0 90.37 70.11   L 88.40 65.78   A 0.38 0.38 0.0 0 0 88.07 65.56   L 63.23 64.19   A 0.38 0.38 0.0 0 0 62.84 64.48   L 60.78 73.03   A 0.38 0.38 0.0 0 0 61.18 73.50   L 90.06 70.64   Z   M 81.61 199.42   Q 110.94 208.49 140.72 200.73   Q 152.02 197.79 159.04 193.03   C 173.37 183.30 180.86 166.63 181.54 149.49   C 182.67 120.88 155.65 91.38 135.08 74.42   C 133.12 72.80 132.34 71.63 129.66 71.52   Q 113.34 70.84 97.25 70.32   A 2.60 2.60 0.0 0 0 95.43 70.97   C 78.19 86.12 58.01 107.60 51.04 129.99   C 49.54 134.80 48.84 140.85 47.81 146.24   Q 46.81 151.51 47.42 159.98   Q 48.87 180.26 63.57 191.06   Q 70.12 195.87 81.61 199.42   Z"/>
<path fill="#cd8fcb" d="   M 88.56 28.04   C 101.32 9.37 128.96 16.25 145.23 24.63   A 0.51 0.51 0.0 0 1 145.47 25.27   L 133.96 54.00   Q 133.76 54.49 133.23 54.49   L 98.56 54.04   Q 97.99 54.03 97.79 53.50   L 88.48 28.68   Q 88.35 28.34 88.56 28.04   Z"/>
<path fill="#cd8fcb" d="   M 90.29 61.00   A 0.79 0.79 0.0 0 0 91.67 61.60   C 93.15 59.92 94.58 58.01 97.25 58.06   Q 114.50 58.42 131.77 58.70   Q 132.34 58.71 132.78 59.07   L 137.82 63.14   A 0.51 0.51 0.0 0 1 137.89 63.87   L 134.00 68.46   A 1.01 1.00 -68.5 0 1 133.19 68.82   Q 110.00 68.21 96.50 68.19   C 93.41 68.18 91.71 63.59 88.96 61.93   Q 75.41 53.75 62.02 45.64   A 0.81 0.80 31.4 0 1 61.75 44.54   L 65.42 38.48   A 0.69 0.68 34.6 0 1 66.44 38.30   L 90.04 57.20   A 1.34 1.32 -68.5 0 1 90.53 58.35   L 90.29 61.00   Z"/>
<path fill="#cd8fcb" d="   M 90.06 70.64   L 61.18 73.50   A 0.38 0.38 0.0 0 1 60.78 73.03   L 62.84 64.48   A 0.38 0.38 0.0 0 1 63.23 64.19   L 88.07 65.56   A 0.38 0.38 0.0 0 1 88.40 65.78   L 90.37 70.11   A 0.38 0.38 0.0 0 1 90.06 70.64   Z"/>
<path fill="#ba80b8" d="   M 63.57 191.06   Q 48.87 180.26 47.42 159.98   Q 46.81 151.51 47.81 146.24   C 48.84 140.85 49.54 134.80 51.04 129.99   C 58.01 107.60 78.19 86.12 95.43 70.97   A 2.60 2.60 0.0 0 1 97.25 70.32   Q 113.34 70.84 129.66 71.52   C 132.34 71.63 133.12 72.80 135.08 74.42   C 155.65 91.38 182.67 120.88 181.54 149.49   C 180.86 166.63 173.37 183.30 159.04 193.03   Q 152.02 197.79 140.72 200.73   Q 110.94 208.49 81.61 199.42   Q 70.12 195.87 63.57 191.06   Z   M 94.88 72.88   Q 79.96 87.55 73.27 95.50   Q 66.08 104.05 60.89 111.88   Q 55.74 119.65 52.60 128.73   C 50.86 133.78 50.12 139.82 49.13 145.38   C 48.02 151.63 48.10 161.17 49.81 167.93   Q 51.79 175.78 55.91 181.78   C 63.86 193.32 78.11 197.78 91.27 200.77   C 95.30 201.68 99.24 201.70 103.27 202.55   C 108.01 203.56 114.69 202.88 119.64 202.87   C 123.17 202.86 126.99 202.09 130.99 201.65   Q 138.54 200.83 148.65 197.23   C 168.57 190.15 179.46 170.17 180.19 149.97   C 180.81 132.47 172.14 115.65 160.90 102.60   C 154.87 95.60 150.02 89.17 143.50 83.21   Q 138.39 78.53 133.10 74.05   C 131.64 72.81 130.59 72.64 128.75 72.60   Q 120.20 72.44 99.75 71.65   Q 98.56 71.60 97.76 71.76   Q 97.74 71.76 96.91 71.81   Q 95.90 71.86 94.88 72.88   Z"/>
<path fill="#cd8fcb" d="   M 94.88 72.88   Q 95.90 71.86 96.91 71.81   Q 97.74 71.76 97.76 71.76   Q 98.56 71.60 99.75 71.65   Q 120.20 72.44 128.75 72.60   C 130.59 72.64 131.64 72.81 133.10 74.05   Q 138.39 78.53 143.50 83.21   C 150.02 89.17 154.87 95.60 160.90 102.60   C 172.14 115.65 180.81 132.47 180.19 149.97   C 179.46 170.17 168.57 190.15 148.65 197.23   Q 138.54 200.83 130.99 201.65   C 126.99 202.09 123.17 202.86 119.64 202.87   C 114.69 202.88 108.01 203.56 103.27 202.55   C 99.24 201.70 95.30 201.68 91.27 200.77   C 78.11 197.78 63.86 193.32 55.91 181.78   Q 51.79 175.78 49.81 167.93   C 48.10 161.17 48.02 151.63 49.13 145.38   C 50.12 139.82 50.86 133.78 52.60 128.73   Q 55.74 119.65 60.89 111.88   Q 66.08 104.05 73.27 95.50   Q 79.96 87.55 94.88 72.88   Z   M 106.79 166.18   C 102.19 165.86 97.75 163.79 93.86 161.43   C 90.04 159.12 89.02 154.76 83.03 155.23   C 78.17 155.61 71.50 160.65 74.90 166.13   C 81.40 176.60 94.80 182.12 106.48 183.20   A 1.12 1.11 88.7 0 1 107.48 184.16   C 107.68 185.69 107.40 187.36 107.98 188.74   C 109.94 193.38 115.21 194.30 119.04 191.59   Q 122.15 189.38 121.56 184.81   A 1.19 1.19 0.0 0 1 122.60 183.48   Q 129.11 182.71 135.73 180.61   Q 143.99 177.99 150.05 171.83   C 158.69 163.04 159.63 150.14 151.49 141.06   C 144.75 133.54 136.39 132.48 127.21 130.16   C 125.59 129.75 124.03 129.93 122.34 129.79   A 0.77 0.76 2.5 0 1 121.64 129.03   L 121.64 109.73   A 0.90 0.90 0.0 0 1 122.58 108.83   C 128.79 109.09 135.70 111.24 139.72 116.09   C 143.30 120.42 147.48 122.04 152.73 118.90   C 156.25 116.79 157.83 113.80 156.25 109.87   Q 155.30 107.51 154.25 106.37   Q 144.13 95.38 129.49 93.14   Q 125.18 92.48 122.31 91.82   A 0.81 0.80 -1.2 0 1 121.72 91.26   Q 121.46 90.40 121.45 89.45   Q 121.38 84.72 117.91 82.95   C 112.14 80.01 107.08 84.86 107.56 91.05   A 0.67 0.66 78.0 0 1 107.12 91.73   C 104.27 92.71 100.96 92.92 98.52 93.64   C 95.33 94.57 92.27 95.32 89.38 96.97   Q 85.77 99.04 84.00 100.47   C 77.46 105.76 72.70 114.44 74.27 122.88   C 77.00 137.57 94.06 144.06 106.65 145.34   Q 107.43 145.42 107.43 146.20   L 107.37 165.75   Q 107.37 166.22 106.79 166.18   Z"/>
<path fill="#ba80b8" d="   M 107.37 165.75   L 107.43 146.20   Q 107.43 145.42 106.65 145.34   C 94.06 144.06 77.00 137.57 74.27 122.88   C 72.70 114.44 77.46 105.76 84.00 100.47   Q 85.77 99.04 89.38 96.97   C 92.27 95.32 95.33 94.57 98.52 93.64   C 100.96 92.92 104.27 92.71 107.12 91.73   A 0.67 0.66 78.0 0 0 107.56 91.05   C 107.08 84.86 112.14 80.01 117.91 82.95   Q 121.38 84.72 121.45 89.45   Q 121.46 90.40 121.72 91.26   A 0.81 0.80 -1.2 0 0 122.31 91.82   Q 125.18 92.48 129.49 93.14   Q 144.13 95.38 154.25 106.37   Q 155.30 107.51 156.25 109.87   C 157.83 113.80 156.25 116.79 152.73 118.90   C 147.48 122.04 143.30 120.42 139.72 116.09   C 135.70 111.24 128.79 109.09 122.58 108.83   A 0.90 0.90 0.0 0 0 121.64 109.73   L 121.64 129.03   A 0.77 0.76 2.5 0 0 122.34 129.79   C 124.03 129.93 125.59 129.75 127.21 130.16   C 136.39 132.48 144.75 133.54 151.49 141.06   C 159.63 150.14 158.69 163.04 150.05 171.83   Q 143.99 177.99 135.73 180.61   Q 129.11 182.71 122.60 183.48   A 1.19 1.19 0.0 0 0 121.56 184.81   Q 122.15 189.38 119.04 191.59   C 115.21 194.30 109.94 193.38 107.98 188.74   C 107.40 187.36 107.68 185.69 107.48 184.16   A 1.12 1.11 88.7 0 0 106.48 183.20   C 94.80 182.12 81.40 176.60 74.90 166.13   C 71.50 160.65 78.17 155.61 83.03 155.23   C 89.02 154.76 90.04 159.12 93.86 161.43   C 97.75 163.79 102.19 165.86 106.79 166.18   Q 107.37 166.22 107.37 165.75   Z   M 108.18 93.24   C 96.09 94.07 83.17 98.84 77.64 109.66   Q 73.83 117.13 75.96 124.77   C 79.68 138.11 96.21 143.29 108.26 144.28   Q 108.72 144.32 108.72 144.77   L 108.72 167.49   Q 108.72 167.96 108.25 167.91   C 102.62 167.33 93.87 164.78 90.42 159.95   C 84.11 151.12 69.58 159.52 77.67 168.36   C 85.87 177.30 96.87 181.21 108.22 182.21   Q 108.75 182.26 108.74 182.78   C 108.71 185.16 108.32 187.79 109.67 189.73   C 111.99 193.09 117.82 192.87 119.85 189.15   C 120.79 187.42 120.50 185.04 120.48 183.01   Q 120.48 182.48 121.00 182.43   C 136.96 181.03 158.19 172.99 155.46 152.74   C 153.25 136.23 134.73 131.37 120.97 130.98   Q 120.49 130.97 120.49 130.48   L 120.50 107.76   Q 120.50 107.27 120.98 107.30   C 126.59 107.61 137.03 110.07 140.38 115.12   C 146.93 125.01 162.56 115.98 151.66 105.33   C 143.38 97.25 131.91 93.86 120.94 93.10   Q 120.44 93.06 120.46 92.56   C 120.62 87.80 120.58 83.83 114.75 83.22   Q 111.00 82.83 109.30 86.21   C 108.37 88.05 108.76 90.53 108.72 92.67   Q 108.72 93.21 108.18 93.24   Z"/>
<path fill="#ffffff" d="   M 108.72 92.67   C 108.76 90.53 108.37 88.05 109.30 86.21   Q 111.00 82.83 114.75 83.22   C 120.58 83.83 120.62 87.80 120.46 92.56   Q 120.44 93.06 120.94 93.10   C 131.91 93.86 143.38 97.25 151.66 105.33   C 162.56 115.98 146.93 125.01 140.38 115.12   C 137.03 110.07 126.59 107.61 120.98 107.30   Q 120.50 107.27 120.50 107.76   L 120.49 130.48   Q 120.49 130.97 120.97 130.98   C 134.73 131.37 153.25 136.23 155.46 152.74   C 158.19 172.99 136.96 181.03 121.00 182.43   Q 120.48 182.48 120.48 183.01   C 120.50 185.04 120.79 187.42 119.85 189.15   C 117.82 192.87 111.99 193.09 109.67 189.73   C 108.32 187.79 108.71 185.16 108.74 182.78   Q 108.75 182.26 108.22 182.21   C 96.87 181.21 85.87 177.30 77.67 168.36   C 69.58 159.52 84.11 151.12 90.42 159.95   C 93.87 164.78 102.62 167.33 108.25 167.91   Q 108.72 167.96 108.72 167.49   L 108.72 144.77   Q 108.72 144.32 108.26 144.28   C 96.21 143.29 79.68 138.11 75.96 124.77   Q 73.83 117.13 77.64 109.66   C 83.17 98.84 96.09 94.07 108.18 93.24   Q 108.72 93.21 108.72 92.67   Z   M 108.80 130.11   L 108.68 107.69   A 0.28 0.28 0.0 0 0 108.40 107.41   L 108.27 107.41   A 17.99 11.28 -0.3 0 0 90.34 118.79   L 90.34 119.21   A 17.99 11.28 -0.3 0 0 108.39 130.39   L 108.52 130.39   A 0.28 0.28 0.0 0 0 108.80 130.11   Z   M 132.85 165.35   C 142.04 162.22 142.54 149.60 132.60 146.86   Q 126.93 145.30 120.97 145.06   Q 120.49 145.04 120.49 145.51   L 120.49 167.79   Q 120.49 168.46 121.15 168.37   Q 125.73 167.78 132.85 165.35   Z"/>
<path fill="#cd8fcb" d="   M 108.80 130.11   A 0.28 0.28 0.0 0 1 108.52 130.39   L 108.39 130.39   A 17.99 11.28 -0.3 0 1 90.34 119.21   L 90.34 118.79   A 17.99 11.28 -0.3 0 1 108.27 107.41   L 108.40 107.41   A 0.28 0.28 0.0 0 1 108.68 107.69   L 108.80 130.11   Z"/>
<path fill="#cd8fcb" d="   M 132.60 146.86   C 142.54 149.60 142.04 162.22 132.85 165.35   Q 125.73 167.78 121.15 168.37   Q 120.49 168.46 120.49 167.79   L 120.49 145.51   Q 120.49 145.04 120.97 145.06   Q 126.93 145.30 132.60 146.86   Z"/>
</svg>