<svg xmlns="http://www.w3.org/2000/svg" version="1.1" viewBox="0.00 0.00 50.00 50.00">
<g stroke-width="2.00" fill="none" stroke-linecap="butt">
<path stroke="#808080" vector-effect="non-scaling-stroke" d="   M 24.52 41.12   A 0.87 0.85 -44.5 0 1 25.41 41.12   Q 29.64 43.71 34.08 46.31   Q 34.60 46.61 34.91 46.50   A 1.07 0.94 73.5 0 0 35.49 45.25   L 32.15 32.79   A 1.10 1.07 56.6 0 1 32.33 31.85   Q 33.50 30.32 34.07 28.47   A 1.04 1.03 86.9 0 1 34.66 27.81   L 37.43 26.63   A 1.41 1.40 69.6 0 0 38.21 24.92   Q 37.19 21.73 39.63 19.58   A 1.35 1.35 0.0 0 0 39.64 17.57   Q 37.14 15.29 38.15 12.00   A 1.25 1.25 0.0 0 0 37.24 10.41   Q 34.08 9.65 33.24 6.52   A 1.50 1.50 0.0 0 0 31.52 5.44   Q 28.14 6.08 25.73 3.77   A 0.96 0.95 49.5 0 0 24.54 3.67   L 22.03 5.36   A 0.93 0.92 -60.9 0 1 21.48 5.52   L 17.78 5.45   Q 17.21 5.44 16.99 5.96   L 15.89 8.60   Q 15.67 9.12 15.16 9.35   L 12.59 10.49   A 1.43 1.42 -20.4 0 0 11.80 12.21   Q 12.75 15.31 10.45 17.49   A 1.52 1.52 0.0 0 0 10.49 19.73   Q 12.87 21.84 11.82 24.87   A 1.38 1.38 0.0 0 0 12.57 26.58   L 14.96 27.62   Q 15.45 27.84 15.70 28.31   L 17.68 32.15   Q 17.90 32.57 17.78 33.03   L 14.45 45.49   A 0.96 0.86 17.8 0 0 15.07 46.56   Q 15.39 46.67 15.93 46.35   Q 20.27 43.77 24.52 41.12" fill="#cd8fcb"/>
<path stroke="#808080" vector-effect="non-scaling-stroke" d="   M 13.97 12.75   C 14.35 15.43 13.88 15.99 12.50 18.12   A 0.79 0.79 0.0 0 0 12.58 19.08   Q 14.75 21.38 13.91 24.44   A 0.58 0.58 0.0 0 0 14.32 25.16   Q 17.58 26.02 18.38 29.27   A 0.58 0.58 0.0 0 0 19.13 29.68   C 21.86 28.77 22.51 29.80 24.69 31.11   Q 25.23 31.43 25.66 30.99   Q 27.77 28.82 30.76 29.60   A 0.69 0.68 19.8 0 0 31.56 29.23   L 32.40 27.43   Q 32.69 26.80 33.25 26.38   Q 34.36 25.56 35.70 25.16   A 0.58 0.58 0.0 0 0 36.10 24.46   Q 35.28 21.32 37.47 19.03   A 0.73 0.71 45.6 0 0 37.47 18.03   Q 35.35 15.78 36.05 12.74   A 0.75 0.74 15.6 0 0 35.55 11.86   Q 32.74 10.97 31.71 8.22   A 1.01 1.01 0.0 0 0 30.92 7.58   C 28.30 7.21 27.62 7.77 25.38 6.14   A 0.69 0.68 -44.5 0 0 24.59 6.14   C 22.43 7.72 21.71 7.55 19.10 7.59   A 0.93 0.92 10.6 0 0 18.26 8.16   L 17.44 10.11   A 1.49 1.48 88.9 0 1 16.72 10.86   L 14.41 11.93   A 0.79 0.79 0.0 0 0 13.97 12.75" fill="#cd8fcb"/>
<path stroke="#808080" vector-effect="non-scaling-stroke" d="   M 25.31 33.75   A 0.33 0.33 0.0 0 1 24.91 33.75   L 20.83 30.77   A 0.33 0.33 0.0 0 0 20.32 30.95   L 17.23 42.69   A 0.33 0.33 0.0 0 0 17.73 43.05   L 24.79 38.60   A 0.33 0.33 0.0 0 1 25.15 38.60   L 32.29 43.07   A 0.33 0.33 0.0 0 0 32.78 42.71   L 29.69 30.89   A 0.33 0.33 0.0 0 0 29.16 30.71   L 25.31 33.75" fill="#cd8fcb"/>
<path stroke="#808080" vector-effect="non-scaling-stroke" d="   M 34.44 18.55   A 9.44 9.44 0.0 0 0 25.00 9.11   A 9.44 9.44 0.0 0 0 15.56 18.55   A 9.44 9.44 0.0 0 0 25.00 27.99   A 9.44 9.44 0.0 0 0 34.44 18.55" fill="#cd8fcb"/>
<path stroke="#808080" vector-effect="non-scaling-stroke" d="   M 32.47 18.54   A 7.47 7.47 0.0 0 0 25.00 11.07   A 7.47 7.47 0.0 0 0 17.53 18.54   A 7.47 7.47 0.0 0 0 25.00 26.01   A 7.47 7.47 0.0 0 0 32.47 18.54" fill="#cd8fcb"/>
<path stroke="#808080" vector-effect="non-scaling-stroke" d="   M 24.26 19.34   A 0.95 0.95 0.0 0 1 22.85 19.24   Q 21.96 18.12 20.68 17.47   A 0.86 0.86 0.0 0 0 19.69 18.85   L 23.30 22.43   Q 23.71 22.83 24.11 22.42   L 30.46 15.89   A 0.58 0.58 0.0 0 0 30.39 15.02   L 30.04 14.76   A 0.88 0.87 40.9 0 0 28.91 14.84   L 24.26 19.34" fill="#cd8fcb"/>
</g>
<path fill="#ffffff" d="   M 0.00 0.00   L 50.00 0.00   L 50.00 50.00   L 0.00 50.00   L 0.00 0.00   Z   M 24.52 41.12   A 0.87 0.85 -44.5 0 1 25.41 41.12   Q 29.64 43.71 34.08 46.31   Q 34.60 46.61 34.91 46.50   A 1.07 0.94 73.5 0 0 35.49 45.25   L 32.15 32.79   A 1.10 1.07 56.6 0 1 32.33 31.85   Q 33.50 30.32 34.07 28.47   A 1.04 1.03 86.9 0 1 34.66 27.81   L 37.43 26.63   A 1.41 1.40 69.6 0 0 38.21 24.92   Q 37.19 21.73 39.63 19.58   A 1.35 1.35 0.0 0 0 39.64 17.57   Q 37.14 15.29 38.15 12.00   A 1.25 1.25 0.0 0 0 37.24 10.41   Q 34.08 9.65 33.24 6.52   A 1.50 1.50 0.0 0 0 31.52 5.44   Q 28.14 6.08 25.73 3.77   A 0.96 0.95 49.5 0 0 24.54 3.67   L 22.03 5.36   A 0.93 0.92 -60.9 0 1 21.48 5.52   L 17.78 5.45   Q 17.21 5.44 16.99 5.96   L 15.89 8.60   Q 15.67 9.12 15.16 9.35   L 12.59 10.49   A 1.43 1.42 -20.4 0 0 11.80 12.21   Q 12.75 15.31 10.45 17.49   A 1.52 1.52 0.0 0 0 10.49 19.73   Q 12.87 21.84 11.82 24.87   A 1.38 1.38 0.0 0 0 12.57 26.58   L 14.96 27.62   Q 15.45 27.84 15.70 28.31   L 17.68 32.15   Q 17.90 32.57 17.78 33.03   L 14.45 45.49   A 0.96 0.86 17.8 0 0 15.07 46.56   Q 15.39 46.67 15.93 46.35   Q 20.27 43.77 24.52 41.12   Z"/>
<path fill="#cd8fcb" d="   M 24.52 41.12   Q 20.27 43.77 15.93 46.35   Q 15.39 46.67 15.07 46.56   A 0.96 0.86 17.8 0 1 14.45 45.49   L 17.78 33.03   Q 17.90 32.57 17.68 32.15   L 15.70 28.31   Q 15.45 27.84 14.96 27.62   L 12.57 26.58   A 1.38 1.38 0.0 0 1 11.82 24.87   Q 12.87 21.84 10.49 19.73   A 1.52 1.52 0.0 0 1 10.45 17.49   Q 12.75 15.31 11.80 12.21   A 1.43 1.42 -20.4 0 1 12.59 10.49   L 15.16 9.35   Q 15.67 9.12 15.89 8.60   L 16.99 5.96   Q 17.21 5.44 17.78 5.45   L 21.48 5.52   A 0.93 0.92 -60.9 0 0 22.03 5.36   L 24.54 3.67   A 0.96 0.95 49.5 0 1 25.73 3.77   Q 28.14 6.08 31.52 5.44   A 1.50 1.50 0.0 0 1 33.24 6.52   Q 34.08 9.65 37.24 10.41   A 1.25 1.25 0.0 0 1 38.15 12.00   Q 37.14 15.29 39.64 17.57   A 1.35 1.35 0.0 0 1 39.63 19.58   Q 37.19 21.73 38.21 24.92   A 1.41 1.40 69.6 0 1 37.43 26.63   L 34.66 27.81   A 1.04 1.03 86.9 0 0 34.07 28.47   Q 33.50 30.32 32.33 31.85   A 1.10 1.07 56.6 0 0 32.15 32.79   L 35.49 45.25   A 1.07 0.94 73.5 0 1 34.91 46.50   Q 34.60 46.61 34.08 46.31   Q 29.64 43.71 25.41 41.12   A 0.87 0.85 -44.5 0 0 24.52 41.12   Z   M 13.97 12.75   C 14.35 15.43 13.88 15.99 12.50 18.12   A 0.79 0.79 0.0 0 0 12.58 19.08   Q 14.75 21.38 13.91 24.44   A 0.58 0.58 0.0 0 0 14.32 25.16   Q 17.58 26.02 18.38 29.27   A 0.58 0.58 0.0 0 0 19.13 29.68   C 21.86 28.77 22.51 29.80 24.69 31.11   Q 25.23 31.43 25.66 30.99   Q 27.77 28.82 30.76 29.60   A 0.69 0.68 19.8 0 0 31.56 29.23   L 32.40 27.43   Q 32.69 26.80 33.25 26.38   Q 34.36 25.56 35.70 25.16   A 0.58 0.58 0.0 0 0 36.10 24.46   Q 35.28 21.32 37.47 19.03   A 0.73 0.71 45.6 0 0 37.47 18.03   Q 35.35 15.78 36.05 12.74   A 0.75 0.74 15.6 0 0 35.55 11.86   Q 32.74 10.97 31.71 8.22   A 1.01 1.01 0.0 0 0 30.92 7.58   C 28.30 7.21 27.62 7.77 25.38 6.14   A 0.69 0.68 -44.5 0 0 24.59 6.14   C 22.43 7.72 21.71 7.55 19.10 7.59   A 0.93 0.92 10.6 0 0 18.26 8.16   L 17.44 10.11   A 1.49 1.48 88.9 0 1 16.72 10.86   L 14.41 11.93   A 0.79 0.79 0.0 0 0 13.97 12.75   Z   M 25.31 33.75   A 0.33 0.33 0.0 0 1 24.91 33.75   L 20.83 30.77   A 0.33 0.33 0.0 0 0 20.32 30.95   L 17.23 42.69   A 0.33 0.33 0.0 0 0 17.73 43.05   L 24.79 38.60   A 0.33 0.33 0.0 0 1 25.15 38.60   L 32.29 43.07   A 0.33 0.33 0.0 0 0 32.78 42.71   L 29.69 30.89   A 0.33 0.33 0.0 0 0 29.16 30.71   L 25.31 33.75   Z"/>
<path fill="#ffffff" d="   M 12.50 18.12   C 13.88 15.99 14.35 15.43 13.97 12.75   A 0.79 0.79 0.0 0 1 14.41 11.93   L 16.72 10.86   A 1.49 1.48 88.9 0 0 17.44 10.11   L 18.26 8.16   A 0.93 0.92 10.6 0 1 19.10 7.59   C 21.71 7.55 22.43 7.72 24.59 6.14   A 0.69 0.68 -44.5 0 1 25.38 6.14   C 27.62 7.77 28.30 7.21 30.92 7.58   A 1.01 1.01 0.0 0 1 31.71 8.22   Q 32.74 10.97 35.55 11.86   A 0.75 0.74 15.6 0 1 36.05 12.74   Q 35.35 15.78 37.47 18.03   A 0.73 0.71 45.6 0 1 37.47 19.03   Q 35.28 21.32 36.10 24.46   A 0.58 0.58 0.0 0 1 35.70 25.16   Q 34.36 25.56 33.25 26.38   Q 32.69 26.80 32.40 27.43   L 31.56 29.23   A 0.69 0.68 19.8 0 1 30.76 29.60   Q 27.77 28.82 25.66 30.99   Q 25.23 31.43 24.69 31.11   C 22.51 29.80 21.86 28.77 19.13 29.68   A 0.58 0.58 0.0 0 1 18.38 29.27   Q 17.58 26.02 14.32 25.16   A 0.58 0.58 0.0 0 1 13.91 24.44   Q 14.75 21.38 12.58 19.08   A 0.79 0.79 0.0 0 1 12.50 18.12   Z   M 34.44 18.55   A 9.44 9.44 0.0 0 0 25.00 9.11   A 9.44 9.44 0.0 0 0 15.56 18.55   A 9.44 9.44 0.0 0 0 25.00 27.99   A 9.44 9.44 0.0 0 0 34.44 18.55   Z"/>
<path fill="#cd8fcb" d="   M 34.44 18.55   A 9.44 9.44 0.0 0 1 25.00 27.99   A 9.44 9.44 0.0 0 1 15.56 18.55   A 9.44 9.44 0.0 0 1 25.00 9.11   A 9.44 9.44 0.0 0 1 34.44 18.55   Z   M 32.47 18.54   A 7.47 7.47 0.0 0 0 25.00 11.07   A 7.47 7.47 0.0 0 0 17.53 18.54   A 7.47 7.47 0.0 0 0 25.00 26.01   A 7.47 7.47 0.0 0 0 32.47 18.54   Z"/>
<path fill="#ffffff" d="   M 32.47 18.54   A 7.47 7.47 0.0 0 1 25.00 26.01   A 7.47 7.47 0.0 0 1 17.53 18.54   A 7.47 7.47 0.0 0 1 25.00 11.07   A 7.47 7.47 0.0 0 1 32.47 18.54   Z   M 24.26 19.34   A 0.95 0.95 0.0 0 1 22.85 19.24   Q 21.96 18.12 20.68 17.47   A 0.86 0.86 0.0 0 0 19.69 18.85   L 23.30 22.43   Q 23.71 22.83 24.11 22.42   L 30.46 15.89   A 0.58 0.58 0.0 0 0 30.39 15.02   L 30.04 14.76   A 0.88 0.87 40.9 0 0 28.91 14.84   L 24.26 19.34   Z"/>
<path fill="#cd8fcb" d="   M 24.26 19.34   L 28.91 14.84   A 0.88 0.87 40.9 0 1 30.04 14.76   L 30.39 15.02   A 0.58 0.58 0.0 0 1 30.46 15.89   L 24.11 22.42   Q 23.71 22.83 23.30 22.43   L 19.69 18.85   A 0.86 0.86 0.0 0 1 20.68 17.47   Q 21.96 18.12 22.85 19.24   A 0.95 0.95 0.0 0 0 24.26 19.34   Z"/>
<path fill="#ffffff" d="   M 25.31 33.75   L 29.16 30.71   A 0.33 0.33 0.0 0 1 29.69 30.89   L 32.78 42.71   A 0.33 0.33 0.0 0 1 32.29 43.07   L 25.15 38.60   A 0.33 0.33 0.0 0 0 24.79 38.60   L 17.73 43.05   A 0.33 0.33 0.0 0 1 17.23 42.69   L 20.32 30.95   A 0.33 0.33 0.0 0 1 20.83 30.77   L 24.91 33.75   A 0.33 0.33 0.0 0 0 25.31 33.75   Z"/>
</svg>